#!OML:ASF F:\VICON\USERDATA\INSTALL\rory3\rory3.ASF
:FULLY-SPECIFIED
:DEGREES
248
root 0.700041 16.16 1.99099 -0.343536 -0.894598 5.85723
lowerback 12.8263 1.09998 -8.73139
upperback -4.36636 -0.00373386 0.572962
thorax -12.1097 0.69606 5.57902
lowerneck -10.525 -5.89663 -3.5559
upperneck 20.0487 -8.07877 2.60848
head 8.19878 -3.85615 0.621642
rclavicle 1.18774e-014 -9.54166e-015
rhumerus -43.8894 -4.4575 -80.7716
rradius 24.8456
rwrist 9.51604
rhand -7.45149 20.5237
rfingers 7.12502
rthumb 18.4366 -8.62264
lclavicle 1.18774e-014 -9.54166e-015
lhumerus -37.5569 9.27088 81.8266
lradius 19.9535
lwrist -4.09712
lhand -4.94807 19.85
lfingers 7.12502
lthumb 20.8433 48.7504
rfemur -17.5142 -0.0835278 12.2718
rtibia 74.3671
rfoot 10.4763 -5.55381
rtoes 12.5026
lfemur -16.0411 -11.4579 -30.0439
ltibia 29.1537
lfoot -8.86129 5.97478
ltoes 26.0744
249
root 0.711355 16.1676 2.10905 -0.487219 -0.933755 5.94911
lowerback 12.9059 1.0706 -8.89689
upperback -4.29228 -0.0770142 0.575995
thorax -12.0631 0.669623 5.69407
lowerneck -10.6297 -5.84799 -3.60113
upperneck 20.2593 -8.01303 2.62955
head 8.28915 -3.8229 0.636874
rclavicle 1.80149e-014 1.74931e-014
rhumerus -43.8972 -4.52582 -80.8362
rradius 24.7551
rwrist 9.54051
rhand -7.37767 20.3729
rfingers 7.12502
rthumb 18.5076 -8.76668
lclavicle 1.80149e-014 1.74931e-014
lhumerus -37.273 9.17362 81.8984
lradius 20.0544
lwrist -4.28728
lhand -5.16518 19.2092
lfingers 7.12502
lthumb 20.6347 48.1324
rfemur -18.6034 -0.0422248 12.3238
rtibia 75.0816
rfoot 8.7349 -5.06027
rtoes 12.1378
lfemur -15.2462 -11.405 -30.3311
ltibia 28.9289
lfoot -9.24311 6.01147
ltoes 25.3288
250
root 0.727067 16.1754 2.22796 -0.634099 -0.964432 5.82278
lowerback 13.0042 1.01868 -8.7367
upperback -4.21903 -0.120027 0.617448
thorax -12.0273 0.635029 5.65996
lowerneck -10.6048 -5.79857 -3.59335
upperneck 20.3797 -7.95311 2.63465
head 8.32296 -3.79282 0.643112
rclavicle -3.42904e-015 7.15625e-015
rhumerus -43.9829 -4.75236 -80.8017
rradius 24.7216
rwrist 9.69374
rhand -7.52479 20.7518
rfingers 7.12502
rthumb 18.366 -8.4012
lclavicle -3.42904e-015 7.15625e-015
lhumerus -37.053 8.7044 82.1672
lradius 20.2714
lwrist -4.04969
lhand -5.53893 19.5665
lfingers 7.12502
lthumb 20.2755 48.5282
rfemur -19.6137 -0.0118687 12.6082
rtibia 75.5467
rfoot 7.11378 -4.73444
rtoes 10.8171
lfemur -14.3616 -11.3691 -30.4159
ltibia 28.6605
lfoot -9.62873 5.9911
ltoes 24.7951
251
root 0.739331 16.1774 2.33794 -0.730374 -0.955073 5.77788
lowerback 13.2164 0.982261 -8.70741
upperback -4.22618 -0.180829 0.657507
thorax -12.1525 0.612505 5.70502
lowerneck -10.3991 -5.79545 -3.55429
upperneck 20.3101 -7.94157 2.54877
head 8.25631 -3.79668 0.617188
rclavicle -5.11871e-015 -8.74653e-015
rhumerus -44.1173 -4.92505 -80.7495
rradius 24.5861
rwrist 9.80852
rhand -7.70066 20.7086
rfingers 7.12502
rthumb 18.1968 -8.4602
lclavicle -5.11871e-015 -8.74653e-015
lhumerus -36.941 8.50122 82.305
lradius 20.6168
lwrist -3.78271
lhand -5.4108 20.5507
lfingers 7.12502
lthumb 20.3987 49.4993
rfemur -20.7981 -0.0434584 12.8046
rtibia 75.8935
rfoot 5.58761 -4.62092
rtoes 10.1858
lfemur -13.5306 -11.3834 -30.5302
ltibia 28.287
lfoot -9.9459 5.88077
ltoes 25.5915
252
root 0.754025 16.1882 2.45527 -0.817051 -0.908874 5.74122
lowerback 13.1677 0.896969 -8.67447
upperback -4.1471 -0.274463 0.714516
thorax -12.0152 0.55937 5.77068
lowerneck -10.2957 -5.68738 -3.53636
upperneck 20.2238 -7.7878 2.519
head 8.20134 -3.72777 0.625507
rclavicle -3.57812e-015 -7.15625e-015
rhumerus -44.087 -4.80387 -80.8432
rradius 24.5199
rwrist 9.63131
rhand -7.56779 20.3457
rfingers 7.12502
rthumb 18.3247 -8.81121
lclavicle -3.57812e-015 -7.15625e-015
lhumerus -36.6346 8.47358 82.4197
lradius 20.8244
lwrist -3.51629
lhand -5.39282 20.4042
lfingers 7.12502
lthumb 20.4159 49.351
rfemur -21.9111 -0.0910006 12.9846
rtibia 76.0058
rfoot 4.33284 -4.44023
rtoes 7.99861
lfemur -12.732 -11.4401 -30.7037
ltibia 27.9637
lfoot -10.1468 6.06318
ltoes 24.7775
253
root 0.769161 16.1953 2.58029 -0.828363 -0.75778 5.8369
lowerback 12.8653 0.792502 -8.72169
upperback -4.01671 -0.388041 0.704848
thorax -11.6646 0.486984 5.8069
lowerneck -10.2432 -5.58001 -3.45199
upperneck 20.0629 -7.63788 2.46791
head 8.1272 -3.65745 0.614874
rclavicle -1.98785e-016 1.66979e-014
rhumerus -43.9607 -4.88596 -80.8814
rradius 24.4236
rwrist 9.63182
rhand -7.6268 20.2672
rfingers 7.12502
rthumb 18.2679 -8.89497
lclavicle -1.98785e-016 1.66979e-014
lhumerus -36.2736 7.9212 82.8184
lradius 21.2132
lwrist -2.8773
lhand -5.45578 19.9305
lfingers 7.12502
lthumb 20.3554 48.8837
rfemur -22.8962 -0.331161 13.0074
rtibia 75.9883
rfoot 2.98443 -4.26086
rtoes 6.76071
lfemur -12.001 -11.7305 -31.0298
ltibia 27.7045
lfoot -10.4949 6.2827
ltoes 24.2223
254
root 0.779522 16.1898 2.68936 -0.827983 -0.696047 5.91912
lowerback 12.9973 0.728535 -8.81053
upperback -4.07824 -0.506947 0.695676
thorax -11.7951 0.445444 5.87711
lowerneck -10.1645 -5.54483 -3.35256
upperneck 20.1372 -7.58529 2.33614
head 8.12649 -3.63856 0.562621
rclavicle -3.13086e-015 -1.07344e-014
rhumerus -44.1888 -4.81063 -81.0078
rradius 24.501
rwrist 9.44223
rhand -7.56251 20.0314
rfingers 7.12502
rthumb 18.3298 -9.12496
lclavicle -3.13086e-015 -1.07344e-014
lhumerus -36.1792 7.28491 83.174
lradius 21.8177
lwrist -2.03708
lhand -5.19748 20.1933
lfingers 7.12502
lthumb 20.6037 49.1198
rfemur -23.9397 -0.46119 13.0983
rtibia 75.8891
rfoot 1.43574 -4.16241
rtoes 6.63496
lfemur -11.4226 -11.7691 -31.288
ltibia 27.4615
lfoot -10.6874 6.41667
ltoes 23.1988
255
root 0.787328 16.1854 2.78955 -0.825896 -0.813734 5.86758
lowerback 13.2457 0.698056 -8.83183
upperback -4.13511 -0.572206 0.761856
thorax -11.9985 0.431869 5.98367
lowerneck -10.1699 -5.54074 -3.39288
upperneck 20.1598 -7.56932 2.316
head 8.13542 -3.63596 0.563708
rclavicle 1.83876e-015 7.95139e-015
rhumerus -44.3148 -4.81009 -80.9967
rradius 24.5124
rwrist 9.47966
rhand -7.39294 20.111
rfingers 7.12502
rthumb 18.4929 -9.03
lclavicle 1.83876e-015 7.95139e-015
lhumerus -35.9753 7.33229 83.1994
lradius 22.0518
lwrist -1.74158
lhand -4.96147 19.5757
lfingers 7.12502
lthumb 20.8304 48.4775
rfemur -25.1371 -0.310624 13.3599
rtibia 75.6448
rfoot -0.031485 -4.29464
rtoes 7.96271
lfemur -10.9354 -11.6298 -31.3816
ltibia 27.2525
lfoot -10.8529 6.63521
ltoes 21.4527
256
root 0.800172 16.1839 2.90426 -0.720465 -0.806763 5.95772
lowerback 13.1871 0.573072 -8.96166
upperback -4.10005 -0.749241 0.82173
thorax -11.8921 0.354237 6.16385
lowerneck -10.5025 -5.44209 -3.33426
upperneck 20.2071 -7.41678 2.23075
head 8.20093 -3.56291 0.531896
rclavicle -9.54166e-015 -1.27222e-014
rhumerus -44.2058 -4.52048 -81.1246
rradius 24.5017
rwrist 9.43699
rhand -7.47742 20.506
rfingers 7.12502
rthumb 18.4116 -8.64268
lclavicle -9.54166e-015 -1.27222e-014
lhumerus -35.7068 7.4343 83.2995
lradius 22.3441
lwrist -1.58007
lhand -4.96044 18.878
lfingers 7.12502
lthumb 20.8314 47.7797
rfemur -26.2945 -0.255707 13.3795
rtibia 75.2331
rfoot -1.52664 -4.46366
rtoes 9.47379
lfemur -10.4934 -11.8003 -31.6461
ltibia 27.1499
lfoot -11.284 6.77782
ltoes 21.3661
